<svg width="168" height="27" viewBox="0 0 168 27" fill="none" xmlns="http://www.w3.org/2000/svg">
<g id="Frame 1" clip-path="url(#clip0_1_2)">
<path id="text" d="M5.76136 4.45455H7.86364L12.8068 16.5284H12.9773L17.9205 4.45455H20.0227V19H18.375V7.94886H18.233L13.6875 19H12.0966L7.55114 7.94886H7.40909V19H5.76136V4.45455ZM23.3271 19V8.09091H25.0032V19H23.3271ZM24.1793 6.27273C23.8526 6.27273 23.5709 6.16146 23.3342 5.93892C23.1022 5.71638 22.9862 5.44886 22.9862 5.13636C22.9862 4.82386 23.1022 4.55634 23.3342 4.33381C23.5709 4.11127 23.8526 4 24.1793 4C24.506 4 24.7854 4.11127 25.0174 4.33381C25.2541 4.55634 25.3725 4.82386 25.3725 5.13636C25.3725 5.44886 25.2541 5.71638 25.0174 5.93892C24.7854 6.16146 24.506 6.27273 24.1793 6.27273ZM29.7493 4.45455V19H28.0732V4.45455H29.7493ZM32.8192 19V8.09091H34.4954V19H32.8192ZM33.6715 6.27273C33.3448 6.27273 33.0631 6.16146 32.8263 5.93892C32.5943 5.71638 32.4783 5.44886 32.4783 5.13636C32.4783 4.82386 32.5943 4.55634 32.8263 4.33381C33.0631 4.11127 33.3448 4 33.6715 4C33.9982 4 34.2776 4.11127 34.5096 4.33381C34.7463 4.55634 34.8647 4.82386 34.8647 5.13636C34.8647 5.44886 34.7463 5.71638 34.5096 5.93892C34.2776 6.16146 33.9982 6.27273 33.6715 6.27273ZM39.2415 12.4375V19H37.5653V8.09091H39.1847V9.79545H39.3267C39.5824 9.24148 39.9706 8.7964 40.4915 8.46023C41.0123 8.11932 41.6847 7.94886 42.5085 7.94886C43.2472 7.94886 43.8935 8.10038 44.4474 8.40341C45.0014 8.7017 45.4323 9.15625 45.7401 9.76705C46.0478 10.3731 46.2017 11.1402 46.2017 12.0682V19H44.5256V12.1818C44.5256 11.3248 44.303 10.6572 43.858 10.179C43.4129 9.69602 42.8021 9.45455 42.0256 9.45455C41.4905 9.45455 41.0123 9.57055 40.5909 9.80256C40.1742 10.0346 39.8452 10.3731 39.6037 10.8182C39.3622 11.2633 39.2415 11.803 39.2415 12.4375ZM53.3839 19.2273C52.4748 19.2273 51.6722 18.9976 50.9762 18.5384C50.2802 18.0743 49.7357 17.4209 49.3427 16.5781C48.9497 15.7306 48.7532 14.7292 48.7532 13.5739C48.7532 12.428 48.9497 11.4337 49.3427 10.5909C49.7357 9.74811 50.2826 9.09706 50.9833 8.63778C51.6841 8.1785 52.4937 7.94886 53.4123 7.94886C54.1225 7.94886 54.6836 8.06723 55.0955 8.30398C55.5122 8.53598 55.8294 8.80114 56.0472 9.09943C56.2698 9.39299 56.4426 9.63447 56.5657 9.82386H56.7077V4.45455H58.3839V19H56.7646V17.3239H56.5657C56.4426 17.5227 56.2674 17.7737 56.0401 18.0767C55.8129 18.375 55.4885 18.6425 55.0671 18.8793C54.6457 19.1113 54.0846 19.2273 53.3839 19.2273ZM53.6112 17.7216C54.2835 17.7216 54.8517 17.5464 55.3157 17.196C55.7797 16.8409 56.1325 16.3509 56.3739 15.7259C56.6154 15.0961 56.7362 14.3693 56.7362 13.5455C56.7362 12.7311 56.6178 12.0185 56.381 11.4077C56.1443 10.7921 55.7939 10.3139 55.3299 9.97301C54.8659 9.62737 54.293 9.45455 53.6112 9.45455C52.9009 9.45455 52.3091 9.63684 51.8356 10.0014C51.3668 10.3613 51.0141 10.8513 50.7773 11.4716C50.5453 12.0871 50.4293 12.7784 50.4293 13.5455C50.4293 14.322 50.5477 15.0275 50.7844 15.6619C51.0259 16.2917 51.381 16.7936 51.8498 17.1676C52.3233 17.5369 52.9104 17.7216 53.6112 17.7216ZM68.1353 19H66.2887L71.6296 4.45455H73.4478L78.7887 19H76.9421L72.5955 6.75568H72.4819L68.1353 19ZM68.8171 13.3182H76.2603V14.8807H68.8171V13.3182ZM82.5032 12.4375V19H80.8271V8.09091H82.4464V9.79545H82.5884C82.8441 9.24148 83.2324 8.7964 83.7532 8.46023C84.274 8.11932 84.9464 7.94886 85.7702 7.94886C86.5089 7.94886 87.1552 8.10038 87.7092 8.40341C88.2631 8.7017 88.694 9.15625 89.0018 9.76705C89.3095 10.3731 89.4634 11.1402 89.4634 12.0682V19H87.7873V12.1818C87.7873 11.3248 87.5647 10.6572 87.1197 10.179C86.6746 9.69602 86.0638 9.45455 85.2873 9.45455C84.7522 9.45455 84.274 9.57055 83.8526 9.80256C83.436 10.0346 83.1069 10.3731 82.8654 10.8182C82.6239 11.2633 82.5032 11.803 82.5032 12.4375ZM92.5263 19V8.09091H94.2024V19H92.5263ZM93.3786 6.27273C93.0518 6.27273 92.7701 6.16146 92.5334 5.93892C92.3014 5.71638 92.1854 5.44886 92.1854 5.13636C92.1854 4.82386 92.3014 4.55634 92.5334 4.33381C92.7701 4.11127 93.0518 4 93.3786 4C93.7053 4 93.9846 4.11127 94.2166 4.33381C94.4534 4.55634 94.5717 4.82386 94.5717 5.13636C94.5717 5.44886 94.4534 5.71638 94.2166 5.93892C93.9846 6.16146 93.7053 6.27273 93.3786 6.27273ZM102.017 8.09091V9.51136H96.3633V8.09091H102.017ZM98.011 5.47727H99.6871V15.875C99.6871 16.3485 99.7558 16.7036 99.8931 16.9403C100.035 17.1723 100.215 17.3286 100.433 17.4091C100.655 17.4848 100.89 17.5227 101.136 17.5227C101.321 17.5227 101.472 17.5133 101.591 17.4943C101.709 17.4706 101.804 17.4517 101.875 17.4375L102.216 18.9432C102.102 18.9858 101.943 19.0284 101.74 19.071C101.536 19.1184 101.278 19.142 100.966 19.142C100.492 19.142 100.028 19.0402 99.5735 18.8366C99.1237 18.633 98.7496 18.3229 98.4513 17.9062C98.1578 17.4896 98.011 16.964 98.011 16.3295V5.47727ZM104.538 19V8.09091H106.157V9.79545H106.299C106.527 9.21307 106.894 8.76089 107.4 8.43892C107.907 8.11222 108.515 7.94886 109.225 7.94886C109.945 7.94886 110.544 8.11222 111.022 8.43892C111.505 8.76089 111.882 9.21307 112.152 9.79545H112.265C112.545 9.23201 112.964 8.78456 113.522 8.45312C114.081 8.11695 114.751 7.94886 115.532 7.94886C116.508 7.94886 117.306 8.25426 117.926 8.86506C118.546 9.47112 118.856 10.4157 118.856 11.6989V19H117.18V11.6989C117.18 10.8939 116.96 10.3187 116.52 9.97301C116.079 9.62737 115.561 9.45455 114.964 9.45455C114.197 9.45455 113.603 9.68655 113.181 10.1506C112.76 10.6098 112.549 11.1922 112.549 11.8977V19H110.845V11.5284C110.845 10.9081 110.644 10.4086 110.241 10.0298C109.839 9.64631 109.32 9.45455 108.686 9.45455C108.25 9.45455 107.843 9.57055 107.464 9.80256C107.09 10.0346 106.787 10.3565 106.555 10.7685C106.328 11.1757 106.214 11.6468 106.214 12.1818V19H104.538ZM125.131 19.2557C124.44 19.2557 123.812 19.1255 123.249 18.8651C122.685 18.5999 122.238 18.2188 121.907 17.7216C121.575 17.2197 121.409 16.6136 121.409 15.9034C121.409 15.2784 121.533 14.7718 121.779 14.3835C122.025 13.9905 122.354 13.6828 122.766 13.4602C123.178 13.2377 123.632 13.072 124.13 12.9631C124.632 12.8494 125.136 12.7595 125.642 12.6932C126.305 12.608 126.843 12.544 127.255 12.5014C127.671 12.4541 127.974 12.3759 128.164 12.267C128.358 12.1581 128.455 11.9687 128.455 11.6989V11.642C128.455 10.9413 128.263 10.3968 127.88 10.0085C127.501 9.62027 126.926 9.42614 126.154 9.42614C125.354 9.42614 124.726 9.60133 124.272 9.9517C123.817 10.3021 123.498 10.6761 123.313 11.0739L121.722 10.5057C122.006 9.8428 122.385 9.3267 122.858 8.95739C123.337 8.58333 123.857 8.32292 124.421 8.17614C124.989 8.02462 125.548 7.94886 126.097 7.94886C126.447 7.94886 126.85 7.99148 127.304 8.0767C127.764 8.1572 128.206 8.32528 128.632 8.58097C129.063 8.83665 129.421 9.22254 129.705 9.73864C129.989 10.2547 130.131 10.946 130.131 11.8125V19H128.455V17.5227H128.37C128.256 17.7595 128.067 18.0128 127.801 18.2827C127.536 18.5526 127.184 18.7822 126.743 18.9716C126.303 19.161 125.766 19.2557 125.131 19.2557ZM125.387 17.75C126.05 17.75 126.608 17.6198 127.063 17.3594C127.522 17.099 127.868 16.7628 128.1 16.3509C128.337 15.9389 128.455 15.5057 128.455 15.0511V13.517C128.384 13.6023 128.228 13.6804 127.986 13.7514C127.749 13.8177 127.475 13.8769 127.162 13.929C126.855 13.9763 126.554 14.0189 126.26 14.0568C125.971 14.09 125.737 14.1184 125.557 14.142C125.122 14.1989 124.714 14.2912 124.336 14.419C123.962 14.5421 123.658 14.7292 123.426 14.9801C123.199 15.2263 123.086 15.5625 123.086 15.9886C123.086 16.571 123.301 17.0114 123.732 17.3097C124.167 17.6032 124.719 17.75 125.387 17.75ZM137.935 8.09091V9.51136H132.281V8.09091H137.935ZM133.929 5.47727H135.605V15.875C135.605 16.3485 135.674 16.7036 135.811 16.9403C135.953 17.1723 136.133 17.3286 136.351 17.4091C136.573 17.4848 136.808 17.5227 137.054 17.5227C137.239 17.5227 137.39 17.5133 137.509 17.4943C137.627 17.4706 137.722 17.4517 137.793 17.4375L138.134 18.9432C138.02 18.9858 137.861 19.0284 137.658 19.071C137.454 19.1184 137.196 19.142 136.884 19.142C136.41 19.142 135.946 19.0402 135.491 18.8366C135.042 18.633 134.668 18.3229 134.369 17.9062C134.076 17.4896 133.929 16.964 133.929 16.3295V5.47727ZM140.456 19V8.09091H142.132V19H140.456ZM141.308 6.27273C140.982 6.27273 140.7 6.16146 140.463 5.93892C140.231 5.71638 140.115 5.44886 140.115 5.13636C140.115 4.82386 140.231 4.55634 140.463 4.33381C140.7 4.11127 140.982 4 141.308 4C141.635 4 141.914 4.11127 142.146 4.33381C142.383 4.55634 142.501 4.82386 142.501 5.13636C142.501 5.44886 142.383 5.71638 142.146 5.93892C141.914 6.16146 141.635 6.27273 141.308 6.27273ZM149.634 19.2273C148.649 19.2273 147.785 18.9929 147.042 18.5241C146.303 18.0554 145.725 17.3996 145.309 16.5568C144.897 15.714 144.691 14.7292 144.691 13.6023C144.691 12.4659 144.897 11.474 145.309 10.6264C145.725 9.77888 146.303 9.12074 147.042 8.65199C147.785 8.18324 148.649 7.94886 149.634 7.94886C150.619 7.94886 151.48 8.18324 152.219 8.65199C152.962 9.12074 153.54 9.77888 153.952 10.6264C154.369 11.474 154.577 12.4659 154.577 13.6023C154.577 14.7292 154.369 15.714 153.952 16.5568C153.54 17.3996 152.962 18.0554 152.219 18.5241C151.48 18.9929 150.619 19.2273 149.634 19.2273ZM149.634 17.7216C150.382 17.7216 150.998 17.5298 151.48 17.1463C151.963 16.7628 152.321 16.2585 152.553 15.6335C152.785 15.0085 152.901 14.3314 152.901 13.6023C152.901 12.8731 152.785 12.1937 152.553 11.5639C152.321 10.9342 151.963 10.4252 151.48 10.0369C150.998 9.64867 150.382 9.45455 149.634 9.45455C148.886 9.45455 148.27 9.64867 147.787 10.0369C147.304 10.4252 146.947 10.9342 146.715 11.5639C146.483 12.1937 146.367 12.8731 146.367 13.6023C146.367 14.3314 146.483 15.0085 146.715 15.6335C146.947 16.2585 147.304 16.7628 147.787 17.1463C148.27 17.5298 148.886 17.7216 149.634 17.7216ZM158.812 12.4375V19H157.136V8.09091H158.755V9.79545H158.897C159.153 9.24148 159.541 8.7964 160.062 8.46023C160.583 8.11932 161.255 7.94886 162.079 7.94886C162.817 7.94886 163.464 8.10038 164.018 8.40341C164.572 8.7017 165.003 9.15625 165.31 9.76705C165.618 10.3731 165.772 11.1402 165.772 12.0682V19H164.096V12.1818C164.096 11.3248 163.873 10.6572 163.428 10.179C162.983 9.69602 162.372 9.45455 161.596 9.45455C161.061 9.45455 160.583 9.57055 160.161 9.80256C159.745 10.0346 159.415 10.3731 159.174 10.8182C158.933 11.2633 158.812 11.803 158.812 12.4375Z" fill="black" fill-opacity="0.21"/>
</g>
<defs>
<clipPath id="clip0_1_2">
<rect width="168" height="27" fill="white"/>
</clipPath>
</defs>
</svg>
