<svg width="557" height="51" viewBox="0 0 557 51" fill="none" xmlns="http://www.w3.org/2000/svg">
<path id="text" d="M0.522727 3.45454H14.4545L26.2727 32.2727H26.8182L38.6364 3.45454H52.5682V50H41.6136V21.4091H41.2273L30.0455 49.7045H23.0455L11.8636 21.25H11.4773V50H0.522727V3.45454ZM59.5852 50V15.0909H70.6989V50H59.5852ZM65.1534 11.0227C63.5928 11.0227 62.2519 10.5076 61.1307 9.47727C60.0095 8.43182 59.4489 7.17424 59.4489 5.70454C59.4489 4.25 60.0095 3.00757 61.1307 1.97727C62.2519 0.931816 63.5928 0.409088 65.1534 0.409088C66.7292 0.409088 68.0701 0.931816 69.1761 1.97727C70.2973 3.00757 70.858 4.25 70.858 5.70454C70.858 7.17424 70.2973 8.43182 69.1761 9.47727C68.0701 10.5076 66.7292 11.0227 65.1534 11.0227ZM88.8864 3.45454V50H77.7727V3.45454H88.8864ZM95.9602 50V15.0909H107.074V50H95.9602ZM101.528 11.0227C99.9678 11.0227 98.6269 10.5076 97.5057 9.47727C96.3845 8.43182 95.8239 7.17424 95.8239 5.70454C95.8239 4.25 96.3845 3.00757 97.5057 1.97727C98.6269 0.931816 99.9678 0.409088 101.528 0.409088C103.104 0.409088 104.445 0.931816 105.551 1.97727C106.672 3.00757 107.233 4.25 107.233 5.70454C107.233 7.17424 106.672 8.43182 105.551 9.47727C104.445 10.5076 103.104 11.0227 101.528 11.0227ZM125.261 30.0909V50H114.148V15.0909H124.716V21.5H125.102C125.875 19.3636 127.193 17.6894 129.057 16.4773C130.92 15.25 133.14 14.6364 135.716 14.6364C138.17 14.6364 140.299 15.1894 142.102 16.2955C143.92 17.3864 145.33 18.9167 146.33 20.8864C147.345 22.8409 147.845 25.1288 147.83 27.75V50H136.716V29.9318C136.731 27.9924 136.239 26.4773 135.239 25.3864C134.254 24.2955 132.883 23.75 131.125 23.75C129.958 23.75 128.928 24.0076 128.034 24.5227C127.155 25.0227 126.473 25.7424 125.989 26.6818C125.519 27.6212 125.277 28.7576 125.261 30.0909ZM167.46 50.5C164.884 50.5 162.544 49.8333 160.438 48.5C158.331 47.1667 156.65 45.1667 155.392 42.5C154.134 39.8333 153.506 36.5227 153.506 32.5682C153.506 28.4621 154.157 25.0833 155.46 22.4318C156.763 19.7803 158.468 17.8182 160.574 16.5455C162.695 15.2727 164.975 14.6364 167.415 14.6364C169.248 14.6364 170.816 14.9545 172.119 15.5909C173.422 16.2121 174.498 17.0152 175.347 18C176.195 18.9848 176.839 20.0076 177.278 21.0682H177.506V3.45454H188.619V50H177.619V44.3409H177.278C176.809 45.4167 176.142 46.4242 175.278 47.3636C174.415 48.303 173.331 49.0606 172.028 49.6364C170.741 50.2121 169.218 50.5 167.46 50.5ZM171.324 41.8409C172.672 41.8409 173.824 41.4621 174.778 40.7045C175.733 39.9318 176.468 38.8485 176.983 37.4545C177.498 36.0606 177.756 34.4242 177.756 32.5455C177.756 30.6364 177.498 28.9924 176.983 27.6136C176.483 26.2348 175.748 25.1742 174.778 24.4318C173.824 23.6894 172.672 23.3182 171.324 23.3182C169.945 23.3182 168.778 23.697 167.824 24.4545C166.869 25.2121 166.142 26.2803 165.642 27.6591C165.157 29.0379 164.915 30.6667 164.915 32.5455C164.915 34.4242 165.165 36.0606 165.665 37.4545C166.165 38.8485 166.884 39.9318 167.824 40.7045C168.778 41.4621 169.945 41.8409 171.324 41.8409ZM219.466 50H207.375L223.08 3.45454H238.057L253.761 50H241.67L230.739 15.1818H230.375L219.466 50ZM217.852 31.6818H243.125V40.2273H217.852V31.6818ZM269.886 30.0909V50H258.773V15.0909H269.341V21.5H269.727C270.5 19.3636 271.818 17.6894 273.682 16.4773C275.545 15.25 277.765 14.6364 280.341 14.6364C282.795 14.6364 284.924 15.1894 286.727 16.2955C288.545 17.3864 289.955 18.9167 290.955 20.8864C291.97 22.8409 292.47 25.1288 292.455 27.75V50H281.341V29.9318C281.356 27.9924 280.864 26.4773 279.864 25.3864C278.879 24.2955 277.508 23.75 275.75 23.75C274.583 23.75 273.553 24.0076 272.659 24.5227C271.78 25.0227 271.098 25.7424 270.614 26.6818C270.144 27.6212 269.902 28.7576 269.886 30.0909ZM299.335 50V15.0909H310.449V50H299.335ZM304.903 11.0227C303.343 11.0227 302.002 10.5076 300.881 9.47727C299.759 8.43182 299.199 7.17424 299.199 5.70454C299.199 4.25 299.759 3.00757 300.881 1.97727C302.002 0.931816 303.343 0.409088 304.903 0.409088C306.479 0.409088 307.82 0.931816 308.926 1.97727C310.047 3.00757 310.608 4.25 310.608 5.70454C310.608 7.17424 310.047 8.43182 308.926 9.47727C307.82 10.5076 306.479 11.0227 304.903 11.0227ZM337.227 15.0909V23.2727H315.205V15.0909H337.227ZM319.818 6.72727H330.932V39.0227C330.932 39.7045 331.038 40.2576 331.25 40.6818C331.477 41.0909 331.803 41.3864 332.227 41.5682C332.652 41.7348 333.159 41.8182 333.75 41.8182C334.174 41.8182 334.621 41.7803 335.091 41.7045C335.576 41.6136 335.939 41.5379 336.182 41.4773L337.864 49.5C337.333 49.6515 336.583 49.8409 335.614 50.0682C334.659 50.2955 333.515 50.4394 332.182 50.5C329.576 50.6212 327.341 50.3182 325.477 49.5909C323.629 48.8485 322.212 47.697 321.227 46.1364C320.258 44.5758 319.788 42.6136 319.818 40.25V6.72727ZM342.898 50V15.0909H353.466V21.5H353.852C354.58 19.3788 355.807 17.7045 357.534 16.4773C359.261 15.25 361.322 14.6364 363.716 14.6364C366.14 14.6364 368.216 15.2576 369.943 16.5C371.67 17.7424 372.769 19.4091 373.239 21.5H373.602C374.254 19.4242 375.527 17.7652 377.42 16.5227C379.314 15.2652 381.549 14.6364 384.125 14.6364C387.428 14.6364 390.11 15.697 392.17 17.8182C394.231 19.9242 395.261 22.8182 395.261 26.5V50H384.148V29.0455C384.148 27.303 383.701 25.9773 382.807 25.0682C381.913 24.1439 380.754 23.6818 379.33 23.6818C377.799 23.6818 376.595 24.1818 375.716 25.1818C374.852 26.1667 374.42 27.4924 374.42 29.1591V50H363.739V28.9318C363.739 27.3106 363.299 26.0303 362.42 25.0909C361.542 24.1515 360.383 23.6818 358.943 23.6818C357.973 23.6818 357.117 23.9167 356.375 24.3864C355.633 24.8409 355.049 25.4924 354.625 26.3409C354.216 27.1894 354.011 28.1894 354.011 29.3409V50H342.898ZM411.989 50.5909C409.761 50.5909 407.784 50.2197 406.057 49.4773C404.345 48.7197 402.989 47.5833 401.989 46.0682C401.004 44.5379 400.511 42.6212 400.511 40.3182C400.511 38.3788 400.852 36.7424 401.534 35.4091C402.216 34.0758 403.155 32.9924 404.352 32.1591C405.549 31.3258 406.928 30.697 408.489 30.2727C410.049 29.8333 411.716 29.5379 413.489 29.3864C415.473 29.2045 417.072 29.0152 418.284 28.8182C419.496 28.6061 420.375 28.3106 420.92 27.9318C421.481 27.5379 421.761 26.9848 421.761 26.2727V26.1591C421.761 24.9924 421.36 24.0909 420.557 23.4545C419.754 22.8182 418.67 22.5 417.307 22.5C415.837 22.5 414.655 22.8182 413.761 23.4545C412.867 24.0909 412.299 24.9697 412.057 26.0909L401.807 25.7273C402.11 23.6061 402.89 21.7121 404.148 20.0455C405.42 18.3636 407.163 17.0455 409.375 16.0909C411.602 15.1212 414.277 14.6364 417.398 14.6364C419.625 14.6364 421.678 14.9015 423.557 15.4318C425.436 15.947 427.072 16.7045 428.466 17.7045C429.86 18.6894 430.936 19.9015 431.693 21.3409C432.466 22.7803 432.852 24.4242 432.852 26.2727V50H422.398V45.1364H422.125C421.504 46.3182 420.708 47.3182 419.739 48.1364C418.784 48.9545 417.655 49.5682 416.352 49.9773C415.064 50.3864 413.61 50.5909 411.989 50.5909ZM415.42 43.3182C416.617 43.3182 417.693 43.0758 418.648 42.5909C419.617 42.1061 420.39 41.4394 420.966 40.5909C421.542 39.7273 421.83 38.7273 421.83 37.5909V34.2727C421.511 34.4394 421.125 34.5909 420.67 34.7273C420.231 34.8636 419.746 34.9924 419.216 35.1136C418.686 35.2348 418.14 35.3409 417.58 35.4318C417.019 35.5227 416.481 35.6061 415.966 35.6818C414.92 35.8485 414.027 36.1061 413.284 36.4545C412.557 36.803 411.996 37.2576 411.602 37.8182C411.223 38.3636 411.034 39.0152 411.034 39.7727C411.034 40.9242 411.443 41.803 412.261 42.4091C413.095 43.0152 414.148 43.3182 415.42 43.3182ZM459.352 15.0909V23.2727H437.33V15.0909H459.352ZM441.943 6.72727H453.057V39.0227C453.057 39.7045 453.163 40.2576 453.375 40.6818C453.602 41.0909 453.928 41.3864 454.352 41.5682C454.777 41.7348 455.284 41.8182 455.875 41.8182C456.299 41.8182 456.746 41.7803 457.216 41.7045C457.701 41.6136 458.064 41.5379 458.307 41.4773L459.989 49.5C459.458 49.6515 458.708 49.8409 457.739 50.0682C456.784 50.2955 455.64 50.4394 454.307 50.5C451.701 50.6212 449.466 50.3182 447.602 49.5909C445.754 48.8485 444.337 47.697 443.352 46.1364C442.383 44.5758 441.913 42.6136 441.943 40.25V6.72727ZM465.023 50V15.0909H476.136V50H465.023ZM470.591 11.0227C469.03 11.0227 467.689 10.5076 466.568 9.47727C465.447 8.43182 464.886 7.17424 464.886 5.70454C464.886 4.25 465.447 3.00757 466.568 1.97727C467.689 0.931816 469.03 0.409088 470.591 0.409088C472.167 0.409088 473.508 0.931816 474.614 1.97727C475.735 3.00757 476.295 4.25 476.295 5.70454C476.295 7.17424 475.735 8.43182 474.614 9.47727C473.508 10.5076 472.167 11.0227 470.591 11.0227ZM499.506 50.6591C495.839 50.6591 492.688 49.9091 490.051 48.4091C487.43 46.8939 485.407 44.7879 483.983 42.0909C482.574 39.3788 481.869 36.2348 481.869 32.6591C481.869 29.0682 482.574 25.9242 483.983 23.2273C485.407 20.5152 487.43 18.4091 490.051 16.9091C492.688 15.3939 495.839 14.6364 499.506 14.6364C503.172 14.6364 506.316 15.3939 508.938 16.9091C511.574 18.4091 513.597 20.5152 515.006 23.2273C516.43 25.9242 517.142 29.0682 517.142 32.6591C517.142 36.2348 516.43 39.3788 515.006 42.0909C513.597 44.7879 511.574 46.8939 508.938 48.4091C506.316 49.9091 503.172 50.6591 499.506 50.6591ZM499.574 42.2727C500.907 42.2727 502.036 41.8636 502.96 41.0455C503.884 40.2273 504.589 39.0909 505.074 37.6364C505.574 36.1818 505.824 34.5 505.824 32.5909C505.824 30.6515 505.574 28.9545 505.074 27.5C504.589 26.0455 503.884 24.9091 502.96 24.0909C502.036 23.2727 500.907 22.8636 499.574 22.8636C498.195 22.8636 497.028 23.2727 496.074 24.0909C495.134 24.9091 494.415 26.0455 493.915 27.5C493.43 28.9545 493.188 30.6515 493.188 32.5909C493.188 34.5 493.43 36.1818 493.915 37.6364C494.415 39.0909 495.134 40.2273 496.074 41.0455C497.028 41.8636 498.195 42.2727 499.574 42.2727ZM533.949 30.0909V50H522.835V15.0909H533.403V21.5H533.79C534.563 19.3636 535.881 17.6894 537.744 16.4773C539.608 15.25 541.828 14.6364 544.403 14.6364C546.858 14.6364 548.987 15.1894 550.79 16.2955C552.608 17.3864 554.017 18.9167 555.017 20.8864C556.032 22.8409 556.532 25.1288 556.517 27.75V50H545.403V29.9318C545.419 27.9924 544.926 26.4773 543.926 25.3864C542.941 24.2955 541.57 23.75 539.812 23.75C538.646 23.75 537.616 24.0076 536.722 24.5227C535.843 25.0227 535.161 25.7424 534.676 26.6818C534.206 27.6212 533.964 28.7576 533.949 30.0909Z" fill="black" fill-opacity="0.21"/>
</svg>
