<svg width="161" height="16" viewBox="0 0 161 16" fill="none" xmlns="http://www.w3.org/2000/svg">
<path id="text" d="M0.761364 0.454545H2.86364L7.80682 12.5284H7.97727L12.9205 0.454545H15.0227V15H13.375V3.94886H13.233L8.6875 15H7.09659L2.55114 3.94886H2.40909V15H0.761364V0.454545ZM18.3271 15V4.09091H20.0032V15H18.3271ZM19.1793 2.27273C18.8526 2.27273 18.5709 2.16146 18.3342 1.93892C18.1022 1.71638 17.9862 1.44886 17.9862 1.13636C17.9862 0.823864 18.1022 0.556345 18.3342 0.333806C18.5709 0.111269 18.8526 0 19.1793 0C19.506 0 19.7854 0.111269 20.0174 0.333806C20.2541 0.556345 20.3725 0.823864 20.3725 1.13636C20.3725 1.44886 20.2541 1.71638 20.0174 1.93892C19.7854 2.16146 19.506 2.27273 19.1793 2.27273ZM24.7493 0.454545V15H23.0732V0.454545H24.7493ZM27.8192 15V4.09091H29.4954V15H27.8192ZM28.6715 2.27273C28.3448 2.27273 28.0631 2.16146 27.8263 1.93892C27.5943 1.71638 27.4783 1.44886 27.4783 1.13636C27.4783 0.823864 27.5943 0.556345 27.8263 0.333806C28.0631 0.111269 28.3448 0 28.6715 0C28.9982 0 29.2776 0.111269 29.5096 0.333806C29.7463 0.556345 29.8647 0.823864 29.8647 1.13636C29.8647 1.44886 29.7463 1.71638 29.5096 1.93892C29.2776 2.16146 28.9982 2.27273 28.6715 2.27273ZM34.2415 8.4375V15H32.5653V4.09091H34.1847V5.79545H34.3267C34.5824 5.24148 34.9706 4.7964 35.4915 4.46023C36.0123 4.11932 36.6847 3.94886 37.5085 3.94886C38.2472 3.94886 38.8935 4.10038 39.4474 4.40341C40.0014 4.7017 40.4323 5.15625 40.7401 5.76705C41.0478 6.37311 41.2017 7.14015 41.2017 8.06818V15H39.5256V8.18182C39.5256 7.32481 39.303 6.6572 38.858 6.17898C38.4129 5.69602 37.8021 5.45455 37.0256 5.45455C36.4905 5.45455 36.0123 5.57055 35.5909 5.80256C35.1742 6.03456 34.8452 6.37311 34.6037 6.81818C34.3622 7.26326 34.2415 7.80303 34.2415 8.4375ZM48.3839 15.2273C47.4748 15.2273 46.6722 14.9976 45.9762 14.5384C45.2802 14.0743 44.7357 13.4209 44.3427 12.5781C43.9497 11.7306 43.7532 10.7292 43.7532 9.57386C43.7532 8.42803 43.9497 7.43371 44.3427 6.59091C44.7357 5.74811 45.2826 5.09706 45.9833 4.63778C46.6841 4.1785 47.4937 3.94886 48.4123 3.94886C49.1225 3.94886 49.6836 4.06723 50.0955 4.30398C50.5122 4.53598 50.8294 4.80114 51.0472 5.09943C51.2698 5.39299 51.4426 5.63447 51.5657 5.82386H51.7077V0.454545H53.3839V15H51.7646V13.3239H51.5657C51.4426 13.5227 51.2674 13.7737 51.0401 14.0767C50.8129 14.375 50.4885 14.6425 50.0671 14.8793C49.6457 15.1113 49.0846 15.2273 48.3839 15.2273ZM48.6112 13.7216C49.2835 13.7216 49.8517 13.5464 50.3157 13.196C50.7797 12.8409 51.1325 12.3509 51.3739 11.7259C51.6154 11.0961 51.7362 10.3693 51.7362 9.54545C51.7362 8.73106 51.6178 8.01847 51.381 7.40767C51.1443 6.79214 50.7939 6.31392 50.3299 5.97301C49.8659 5.62737 49.293 5.45455 48.6112 5.45455C47.9009 5.45455 47.3091 5.63684 46.8356 6.00142C46.3668 6.36127 46.0141 6.85133 45.7773 7.47159C45.5453 8.08712 45.4293 8.77841 45.4293 9.54545C45.4293 10.322 45.5477 11.0275 45.7844 11.6619C46.0259 12.2917 46.381 12.7936 46.8498 13.1676C47.3233 13.5369 47.9104 13.7216 48.6112 13.7216ZM63.1353 15H61.2887L66.6296 0.454545H68.4478L73.7887 15H71.9421L67.5955 2.75568H67.4819L63.1353 15ZM63.8171 9.31818H71.2603V10.8807H63.8171V9.31818ZM77.5032 8.4375V15H75.8271V4.09091H77.4464V5.79545H77.5884C77.8441 5.24148 78.2324 4.7964 78.7532 4.46023C79.274 4.11932 79.9464 3.94886 80.7702 3.94886C81.5089 3.94886 82.1552 4.10038 82.7092 4.40341C83.2631 4.7017 83.694 5.15625 84.0018 5.76705C84.3095 6.37311 84.4634 7.14015 84.4634 8.06818V15H82.7873V8.18182C82.7873 7.32481 82.5647 6.6572 82.1197 6.17898C81.6746 5.69602 81.0638 5.45455 80.2873 5.45455C79.7522 5.45455 79.274 5.57055 78.8526 5.80256C78.436 6.03456 78.1069 6.37311 77.8654 6.81818C77.6239 7.26326 77.5032 7.80303 77.5032 8.4375ZM87.5263 15V4.09091H89.2024V15H87.5263ZM88.3786 2.27273C88.0518 2.27273 87.7701 2.16146 87.5334 1.93892C87.3014 1.71638 87.1854 1.44886 87.1854 1.13636C87.1854 0.823864 87.3014 0.556345 87.5334 0.333806C87.7701 0.111269 88.0518 0 88.3786 0C88.7053 0 88.9846 0.111269 89.2166 0.333806C89.4534 0.556345 89.5717 0.823864 89.5717 1.13636C89.5717 1.44886 89.4534 1.71638 89.2166 1.93892C88.9846 2.16146 88.7053 2.27273 88.3786 2.27273ZM97.0167 4.09091V5.51136H91.3633V4.09091H97.0167ZM93.011 1.47727H94.6871V11.875C94.6871 12.3485 94.7558 12.7036 94.8931 12.9403C95.0352 13.1723 95.2151 13.3286 95.4329 13.4091C95.6554 13.4848 95.8898 13.5227 96.136 13.5227C96.3207 13.5227 96.4722 13.5133 96.5906 13.4943C96.7089 13.4706 96.8036 13.4517 96.8746 13.4375L97.2156 14.9432C97.1019 14.9858 96.9433 15.0284 96.7397 15.071C96.5361 15.1184 96.2781 15.142 95.9656 15.142C95.4921 15.142 95.0281 15.0402 94.5735 14.8366C94.1237 14.633 93.7496 14.3229 93.4513 13.9062C93.1578 13.4896 93.011 12.964 93.011 12.3295V1.47727ZM99.538 15V4.09091H101.157V5.79545H101.299C101.527 5.21307 101.894 4.76089 102.4 4.43892C102.907 4.11222 103.515 3.94886 104.225 3.94886C104.945 3.94886 105.544 4.11222 106.022 4.43892C106.505 4.76089 106.882 5.21307 107.152 5.79545H107.265C107.545 5.23201 107.964 4.78456 108.522 4.45312C109.081 4.11695 109.751 3.94886 110.532 3.94886C111.508 3.94886 112.306 4.25426 112.926 4.86506C113.546 5.47112 113.856 6.41572 113.856 7.69886V15H112.18V7.69886C112.18 6.89394 111.96 6.31866 111.52 5.97301C111.079 5.62737 110.561 5.45455 109.964 5.45455C109.197 5.45455 108.603 5.68655 108.181 6.15057C107.76 6.60985 107.549 7.19223 107.549 7.89773V15H105.845V7.52841C105.845 6.90814 105.644 6.40862 105.241 6.02983C104.839 5.64631 104.32 5.45455 103.686 5.45455C103.25 5.45455 102.843 5.57055 102.464 5.80256C102.09 6.03456 101.787 6.35653 101.555 6.76847C101.328 7.17566 101.214 7.64678 101.214 8.18182V15H99.538ZM120.131 15.2557C119.44 15.2557 118.812 15.1255 118.249 14.8651C117.685 14.5999 117.238 14.2188 116.907 13.7216C116.575 13.2197 116.409 12.6136 116.409 11.9034C116.409 11.2784 116.533 10.7718 116.779 10.3835C117.025 9.99053 117.354 9.68276 117.766 9.46023C118.178 9.23769 118.632 9.07197 119.13 8.96307C119.632 8.84943 120.136 8.75947 120.642 8.69318C121.305 8.60795 121.843 8.54403 122.255 8.50142C122.671 8.45407 122.974 8.37595 123.164 8.26705C123.358 8.15814 123.455 7.96875 123.455 7.69886V7.64205C123.455 6.94129 123.263 6.39678 122.88 6.00852C122.501 5.62027 121.926 5.42614 121.154 5.42614C120.354 5.42614 119.726 5.60133 119.272 5.9517C118.817 6.30208 118.498 6.67614 118.313 7.07386L116.722 6.50568C117.006 5.8428 117.385 5.3267 117.858 4.95739C118.337 4.58333 118.857 4.32292 119.421 4.17614C119.989 4.02462 120.548 3.94886 121.097 3.94886C121.447 3.94886 121.85 3.99148 122.304 4.0767C122.764 4.1572 123.206 4.32528 123.632 4.58097C124.063 4.83665 124.421 5.22254 124.705 5.73864C124.989 6.25473 125.131 6.94602 125.131 7.8125V15H123.455V13.5227H123.37C123.256 13.7595 123.067 14.0128 122.801 14.2827C122.536 14.5526 122.184 14.7822 121.743 14.9716C121.303 15.161 120.766 15.2557 120.131 15.2557ZM120.387 13.75C121.05 13.75 121.608 13.6198 122.063 13.3594C122.522 13.099 122.868 12.7628 123.1 12.3509C123.337 11.9389 123.455 11.5057 123.455 11.0511V9.51705C123.384 9.60227 123.228 9.6804 122.986 9.75142C122.749 9.81771 122.475 9.87689 122.162 9.92898C121.855 9.97633 121.554 10.0189 121.26 10.0568C120.971 10.09 120.737 10.1184 120.557 10.142C120.122 10.1989 119.714 10.2912 119.336 10.419C118.962 10.5421 118.658 10.7292 118.426 10.9801C118.199 11.2263 118.086 11.5625 118.086 11.9886C118.086 12.571 118.301 13.0114 118.732 13.3097C119.167 13.6032 119.719 13.75 120.387 13.75ZM132.935 4.09091V5.51136H127.281V4.09091H132.935ZM128.929 1.47727H130.605V11.875C130.605 12.3485 130.674 12.7036 130.811 12.9403C130.953 13.1723 131.133 13.3286 131.351 13.4091C131.573 13.4848 131.808 13.5227 132.054 13.5227C132.239 13.5227 132.39 13.5133 132.509 13.4943C132.627 13.4706 132.722 13.4517 132.793 13.4375L133.134 14.9432C133.02 14.9858 132.861 15.0284 132.658 15.071C132.454 15.1184 132.196 15.142 131.884 15.142C131.41 15.142 130.946 15.0402 130.491 14.8366C130.042 14.633 129.668 14.3229 129.369 13.9062C129.076 13.4896 128.929 12.964 128.929 12.3295V1.47727ZM135.456 15V4.09091H137.132V15H135.456ZM136.308 2.27273C135.982 2.27273 135.7 2.16146 135.463 1.93892C135.231 1.71638 135.115 1.44886 135.115 1.13636C135.115 0.823864 135.231 0.556345 135.463 0.333806C135.7 0.111269 135.982 0 136.308 0C136.635 0 136.914 0.111269 137.146 0.333806C137.383 0.556345 137.501 0.823864 137.501 1.13636C137.501 1.44886 137.383 1.71638 137.146 1.93892C136.914 2.16146 136.635 2.27273 136.308 2.27273ZM144.634 15.2273C143.649 15.2273 142.785 14.9929 142.042 14.5241C141.303 14.0554 140.725 13.3996 140.309 12.5568C139.897 11.714 139.691 10.7292 139.691 9.60227C139.691 8.46591 139.897 7.47396 140.309 6.62642C140.725 5.77888 141.303 5.12074 142.042 4.65199C142.785 4.18324 143.649 3.94886 144.634 3.94886C145.619 3.94886 146.48 4.18324 147.219 4.65199C147.962 5.12074 148.54 5.77888 148.952 6.62642C149.369 7.47396 149.577 8.46591 149.577 9.60227C149.577 10.7292 149.369 11.714 148.952 12.5568C148.54 13.3996 147.962 14.0554 147.219 14.5241C146.48 14.9929 145.619 15.2273 144.634 15.2273ZM144.634 13.7216C145.382 13.7216 145.998 13.5298 146.48 13.1463C146.963 12.7628 147.321 12.2585 147.553 11.6335C147.785 11.0085 147.901 10.3314 147.901 9.60227C147.901 8.87311 147.785 8.19366 147.553 7.56392C147.321 6.93419 146.963 6.42519 146.48 6.03693C145.998 5.64867 145.382 5.45455 144.634 5.45455C143.886 5.45455 143.27 5.64867 142.787 6.03693C142.304 6.42519 141.947 6.93419 141.715 7.56392C141.483 8.19366 141.367 8.87311 141.367 9.60227C141.367 10.3314 141.483 11.0085 141.715 11.6335C141.947 12.2585 142.304 12.7628 142.787 13.1463C143.27 13.5298 143.886 13.7216 144.634 13.7216ZM153.812 8.4375V15H152.136V4.09091H153.755V5.79545H153.897C154.153 5.24148 154.541 4.7964 155.062 4.46023C155.583 4.11932 156.255 3.94886 157.079 3.94886C157.817 3.94886 158.464 4.10038 159.018 4.40341C159.572 4.7017 160.003 5.15625 160.31 5.76705C160.618 6.37311 160.772 7.14015 160.772 8.06818V15H159.096V8.18182C159.096 7.32481 158.873 6.6572 158.428 6.17898C157.983 5.69602 157.372 5.45455 156.596 5.45455C156.061 5.45455 155.583 5.57055 155.161 5.80256C154.745 6.03456 154.415 6.37311 154.174 6.81818C153.933 7.26326 153.812 7.80303 153.812 8.4375Z" fill="black" fill-opacity="0.1"/>
</svg>
